<svg width="152" height="184" viewBox="0 0 152 184" fill="none" xmlns="http://www.w3.org/2000/svg">
<path d="M4 106.385V134.046C4 158.899 24.1472 179.046 49 179.046H103C127.853 179.046 148 158.899 148 134.046V106.385" stroke="#4D4D4D" stroke-width="8" stroke-linecap="round"/>
<path d="M71.3394 131.486C71.3394 133.695 73.1302 135.486 75.3394 135.486C77.5485 135.486 79.3394 133.695 79.3394 131.486L71.3394 131.486ZM78.1678 1.17154C76.6057 -0.390564 74.073 -0.390564 72.5109 1.17154L47.0551 26.6274C45.493 28.1895 45.493 30.7221 47.0551 32.2842C48.6172 33.8463 51.1498 33.8463 52.7119 32.2842L75.3394 9.65681L97.9668 32.2842C99.5289 33.8463 102.062 33.8463 103.624 32.2842C105.186 30.7221 105.186 28.1895 103.624 26.6274L78.1678 1.17154ZM79.3394 131.486L79.3393 3.99996L71.3393 3.99996L71.3394 131.486L79.3394 131.486Z" fill="#4D4D4D"/>
</svg>
